<?xml version="1.0" encoding="utf-8"?>
<!-- Generator: Adobe Illustrator 18.1.0, SVG Export Plug-In . SVG Version: 6.00 Build 0)  -->
<svg version="1.1" xmlns="http://www.w3.org/2000/svg" xmlns:xlink="http://www.w3.org/1999/xlink" width="50px" height="50px"
	 viewBox="0 0 50 50" xml:space="preserve">
<path fill="#FFFFFF" d="M50,25C50,11.2,38.8,0,25,0C11.2,0,0,11.2,0,25c0,8.7,4.4,16.3,11.1,20.8c-0.7-1.7-1.1-3.6-1.1-5.6
	c0-8.3,6.7-15,15-15c8.3,0,15,6.7,15,15c0,2-0.4,3.9-1.1,5.6C45.6,41.3,50,33.7,50,25z"/>
<path fill="#2BC9A3" d="M25,25.3c-8.3,0-15,6.7-15,15c0,2,0.4,3.9,1.1,5.6c4,2.7,8.7,4.2,13.9,4.2c5.1,0,9.9-1.5,13.9-4.2
	c0.7-1.7,1.1-3.6,1.1-5.6C40,31.9,33.3,25.3,25,25.3z"/>
<ellipse fill="#FFFFFF" cx="16" cy="42.8" rx="1.7" ry="2.7"/>
<ellipse fill="#FFFFFF" cx="33.4" cy="42.8" rx="1.7" ry="2.7"/>
<path fill="#FFD731" d="M44,30.4L44,30.4c0.3-0.2,0.6-0.5,0.6-0.8c0-0.4-0.2-0.7-0.6-0.8v-8.1L43,21v7.7c-0.3,0.2-0.6,0.5-0.6,0.8
	c0,0.4,0.2,0.7,0.6,0.8v0l-1.2,4.2h1.7h1.7L44,30.4z"/>
<path fill="#FFA624" d="M44,28.8c-0.2-0.1-0.3-0.1-0.5-0.1c-0.2,0-0.4,0-0.5,0.1c-0.3,0.2-0.6,0.5-0.6,0.8c0,0.4,0.2,0.7,0.6,0.8
	c0.2,0.1,0.3,0.1,0.5,0.1c0.2,0,0.4,0,0.5-0.1c0.3-0.2,0.6-0.5,0.6-0.8C44.6,29.2,44.4,28.9,44,28.8z"/>
<polygon fill="#496073" points="37.4,23 47,19.6 47.5,19.4 47,19.3 25,11.5 2.5,19.4 2.5,19.4 2.5,19.4 12.6,23 25,27.3 	"/>
<polygon fill="#415468" points="38.1,33.2 37.3,23 25,27.3 12.7,23 12,33.2 24.9,37.8 	"/>
<polygon opacity="0.4" fill="#231F20" points="25,27.3 25,37.8 38.1,33.2 37.3,23 	"/>
</svg>
