<?xml version="1.0" encoding="utf-8"?>
<!-- Generator: Adobe Illustrator 18.1.0, SVG Export Plug-In . SVG Version: 6.00 Build 0)  -->
<svg version="1.1" xmlns="http://www.w3.org/2000/svg" xmlns:xlink="http://www.w3.org/1999/xlink" width="50px" height="50px"
	 viewBox="0 0 50 50" xml:space="preserve">
<path fill="#FFFFFF" d="M50,25.1C50,11.2,38.8,0,25,0S0,11.2,0,25.1c0,8.7,4.4,16.3,11.1,20.8c-0.7-1.8-1.1-3.6-1.1-5.6
	c0-8.2,6.7-14.9,15-14.9s15,6.7,15,14.9c0,2-0.4,3.9-1.1,5.6C45.6,41.4,50,33.8,50,25.1z"/>
<path fill="#2BC9A3" d="M25,25.3c-8.2,0-14.9,6.7-14.9,14.9c0,2,0.4,3.9,1.1,5.6C15.1,48.4,20,50,25,50c5.1,0,9.9-1.6,13.8-4.2
	c0.7-1.8,1.1-3.6,1.1-5.6C40,32,33.2,25.3,25,25.3z"/>
<ellipse fill="#FFFFFF" cx="16" cy="42.9" rx="1.6" ry="2.8"/>
<ellipse fill="#FFFFFF" cx="33.5" cy="42.9" rx="1.7" ry="2.8"/>
<ellipse transform="matrix(-0.9696 -0.2447 0.2447 -0.9696 31.4203 100.606)" fill="#FFFFFF" cx="22" cy="48.4" rx="0.9" ry="0.6"/>
<ellipse transform="matrix(0.9696 -0.2448 0.2448 0.9696 -10.9976 8.2909)" fill="#FFFFFF" cx="27.9" cy="48.4" rx="0.9" ry="0.7"/>
<path fill="#FFD731" d="M37.8,19.6c-2.8-3-7.6-5-13-5s-10.2,2-13.1,5c-2.6,2-4.2,4.7-4.2,7.5c0,6.3,7.7,11.6,17.2,11.6
	S42,33.6,42,27.2C42,24.2,40.3,21.6,37.8,19.6z"/>
<ellipse fill="#FFA624" cx="24.8" cy="20.8" rx="2.5" ry="1.5"/>
<path fill="#FFA624" d="M24.8,36.3c-8.4,0-15.3-4.8-15.8-10.8c0,0.2-0.1,0.4-0.1,0.7c0,6.3,7.1,11.6,15.9,11.6s15.8-5.2,15.8-11.6
	c0-0.2,0-0.5,0-0.7C40,31.5,33.2,36.3,24.8,36.3z"/>
<polygon fill="#FFA624" points="34.8,19.9 32.7,23 36.2,23 "/>
<polyline fill="#FFA624" points="39.5,24.2 36.2,22.8 37,26.6 "/>
</svg>
