<?xml version="1.0" encoding="utf-8"?>
<!-- Generator: Adobe Illustrator 18.1.0, SVG Export Plug-In . SVG Version: 6.00 Build 0)  -->
<svg version="1.1" id="레이어_1" xmlns="http://www.w3.org/2000/svg" xmlns:xlink="http://www.w3.org/1999/xlink" width="24px" height="24px"
	viewBox="0 0 24 24" xml:space="preserve">

<path fill="#FFFFFF" d="M16.2,4.1H2c-1.1,0-2,0.9-2,2V22c0,1.1,0.9,2,2,2h14.1c1.1,0,2-0.9,2-2V6.1C18.2,5,17.3,4.1,16.2,4.1z
	 M16.3,20.3c0,0.9-0.7,1.6-1.6,1.6H3.5c-0.9,0-1.6-0.7-1.6-1.6V7.7c0-0.9,0.7-1.6,1.6-1.6h11.2c0.9,0,1.6,0.7,1.6,1.6V20.3z"/>
<path fill="#FFFFFF" stroke="#1BBC9B" stroke-width="1.5" stroke-miterlimit="10" d="M21.9,6.3l-1.5,1.5l-5.1-5.1l1.5-1.5
	c0.6-0.6,1.6-0.6,2.2,0l2.9,2.9C22.5,4.7,22.5,5.7,21.9,6.3z M14.6,3.5L3.8,14.2c0,0-1.9,3.7-0.3,5.4c1.6,1.6,5.4-0.3,5.4-0.3
	L19.6,8.6L14.6,3.5z"/>
</svg>
