<?xml version="1.0" encoding="utf-8"?>
<!-- Generator: Adobe Illustrator 18.1.0, SVG Export Plug-In . SVG Version: 6.00 Build 0)  -->
<svg version="1.1" id="레이어_1" xmlns="http://www.w3.org/2000/svg" xmlns:xlink="http://www.w3.org/1999/xlink" width="100px" height="100px"
	viewBox="0 0 100 100" enable-background="new 0 0 100 100" xml:space="preserve">
<path fill="#FFFFFF" d="M100,50c0-27.6-22.4-50-50-50C22.4,0,0,22.4,0,50c0,17.3,8.8,32.6,22.3,41.6c-1.4-3.5-2.2-7.2-2.2-11.2
	c0-16.5,13.4-29.9,29.9-29.9c16.5,0,29.9,13.4,29.9,29.9c0,4-0.8,7.7-2.2,11.2C91.2,82.6,100,67.3,100,50z"/>
<path fill="#2BC9A3" d="M50,50.5c-16.5,0-29.9,13.4-29.9,29.9c0,4,0.8,7.7,2.2,11.2c7.9,5.3,17.5,8.4,27.7,8.4
	c10.3,0,19.8-3.1,27.7-8.4c1.4-3.5,2.2-7.2,2.2-11.2C79.9,63.9,66.5,50.5,50,50.5z"/>
<ellipse fill="#FFFFFF" cx="32" cy="85.6" rx="3.3" ry="5.5"/>
<ellipse fill="#FFFFFF" cx="66.9" cy="85.6" rx="3.3" ry="5.5"/>
<ellipse transform="matrix(0.9697 0.2442 -0.2442 0.9697 24.924 -7.7895)" fill="#FFFFFF" cx="43.9" cy="96.6" rx="1.8" ry="1.3"/>
<ellipse transform="matrix(-0.9697 0.2443 -0.2443 -0.9697 133.2744 176.7395)" fill="#FFFFFF" cx="55.7" cy="96.6" rx="1.8" ry="1.3"/>
<path fill="#FFD731" d="M75.6,39.2c-5.7-6.1-15.2-10.1-26.1-10.1c-10.9,0-20.4,4-26.1,10.1c-5.2,4-8.3,9.3-8.3,15
	c0,12.7,15.4,23.1,34.4,23.1c19,0,34.4-10.3,34.4-23.1C83.9,48.4,80.7,43.2,75.6,39.2z"/>
<ellipse fill="#FFA624" cx="49.5" cy="41.6" rx="5" ry="2.9"/>
<path fill="#FFA624" d="M49.5,72.3c-16.8,0-30.6-9.6-31.6-21.6c0,0.5-0.1,0.9-0.1,1.4c0,12.7,14.2,23.1,31.7,23.1
	c17.5,0,31.7-10.3,31.7-23.1c0-0.5-0.1-1-0.1-1.4C80,62.8,66.3,72.3,49.5,72.3z"/>
<polygon fill="#FFA624" points="69.7,39.8 65.4,46 72.4,46"/>
<polyline fill="#FFA624" points="78.9,48.3 72.4,45.7 74,53"/>
</svg>
