<?xml version="1.0" encoding="utf-8"?>
<!-- Generator: Adobe Illustrator 18.1.0, SVG Export Plug-In . SVG Version: 6.00 Build 0)  -->
<svg version="1.1" xmlns="http://www.w3.org/2000/svg" xmlns:xlink="http://www.w3.org/1999/xlink" width="47" height="49"
	viewBox="0 0 47 49" xml:space="preserve">
<g>
	<g>
		<polygon fill="#E94C43" points="20,0 2.4,0 1,1.9 4.5,1.9 45.4,43.1 45.4,47.4 47,44.9 47,27"/>
		<polygon opacity="0.2" fill="#231F20" points="45.4,47.4 47,44.9 45.4,43.1"/>
		<polygon opacity="0.2" fill="#231F20" points="1,1.9 4.5,1.9 2.4,0"/>
	</g>
	<g>
		<path fill="#FFFFFF" d="M17.8,10l0.8-0.8c0,0.1,0,0.3,0.1,0.4c0,0.1,0.1,0.3,0.2,0.4c0.1,0.1,0.1,0.3,0.2,0.4
			c0.1,0.1,0.2,0.2,0.3,0.3c0.3,0.3,0.6,0.5,0.9,0.5c0.3,0,0.5,0,0.7-0.2c0.1-0.1,0.2-0.2,0.2-0.4c0-0.1,0-0.3,0-0.4
			c0-0.2-0.1-0.3-0.1-0.5c-0.1-0.2-0.1-0.4-0.2-0.6c-0.1-0.2-0.1-0.5-0.2-0.7c0-0.2-0.1-0.4-0.1-0.6c0-0.2,0-0.4,0.1-0.6
			s0.2-0.4,0.4-0.5c0.2-0.2,0.4-0.3,0.7-0.4c0.2-0.1,0.5-0.1,0.8,0c0.3,0.1,0.5,0.2,0.8,0.3c0.2,0.1,0.5,0.3,0.7,0.5
			c0.5,0.5,0.8,0.9,0.9,1.2l-0.7,0.7c-0.1-0.4-0.3-0.9-0.7-1.2c-0.1-0.1-0.2-0.2-0.4-0.3c-0.1-0.1-0.3-0.2-0.4-0.2
			c-0.1,0-0.3,0-0.4,0c-0.1,0-0.2,0.1-0.4,0.2c-0.1,0.1-0.2,0.2-0.2,0.3c0,0.1,0,0.2,0,0.4c0,0.1,0.1,0.3,0.1,0.5
			c0.1,0.2,0.1,0.4,0.2,0.6C21.9,9.6,22,9.8,22,10c0,0.2,0.1,0.4,0.1,0.7c0,0.2,0,0.4-0.1,0.6c-0.1,0.2-0.2,0.4-0.4,0.5
			c-0.2,0.2-0.5,0.4-0.7,0.4c-0.2,0.1-0.5,0.1-0.7,0c-0.3-0.1-0.5-0.2-0.7-0.3c-0.2-0.2-0.5-0.3-0.7-0.6c-0.1-0.1-0.2-0.2-0.3-0.3
			c-0.1-0.1-0.2-0.2-0.3-0.4c-0.1-0.1-0.2-0.3-0.2-0.4C17.9,10.2,17.8,10.1,17.8,10z"/>
		<path fill="#FFFFFF" d="M23.8,16.3l-2.5-2.5l4.5-4.5l2.4,2.4l-0.6,0.6l-1.7-1.7L24.6,12l1.5,1.5l-0.6,0.6L24,12.6l-1.3,1.3
			l1.8,1.8L23.8,16.3z"/>
		<path fill="#FFFFFF" d="M27.1,19.6l-2.5-2.5l4.5-4.5l0.7,0.7L26,17.2l1.7,1.7L27.1,19.6z"/>
		<path fill="#FFFFFF" d="M30.2,22.7l-2.5-2.5l4.5-4.5l2.4,2.4l-0.6,0.6l-1.7-1.7L31,18.4l1.5,1.5l-0.6,0.6L30.4,19l-1.3,1.3
			l1.8,1.8L30.2,22.7z"/>
		<path fill="#FFFFFF" d="M34.3,26.4c-0.5-0.2-1-0.5-1.5-1c-0.6-0.6-1-1.4-0.9-2.2c0-0.8,0.4-1.5,1-2.2c0.7-0.7,1.5-1.1,2.4-1.1
			s1.7,0.3,2.3,1c0.4,0.4,0.7,0.8,0.9,1.3L37.7,23c-0.1-0.5-0.4-0.9-0.7-1.3c-0.5-0.5-1-0.7-1.6-0.7c-0.6,0-1.2,0.3-1.7,0.8
			c-0.5,0.5-0.7,1-0.8,1.6s0.2,1.1,0.7,1.5c0.4,0.4,0.9,0.7,1.4,0.8L34.3,26.4z"/>
		<path fill="#FFFFFF" d="M41.6,26.5l-1.3-1.3L36.5,29l-0.7-0.7l3.8-3.8l-1.3-1.3l0.6-0.6l3.3,3.3L41.6,26.5z"/>
	</g>
</g>
</svg>
