<?xml version="1.0" encoding="utf-8"?>
<!-- Generator: Adobe Illustrator 18.1.0, SVG Export Plug-In . SVG Version: 6.00 Build 0)  -->
<svg version="1.1" xmlns="http://www.w3.org/2000/svg" xmlns:xlink="http://www.w3.org/1999/xlink" width="187px" height="187px"
	viewBox="0 0 187 187" xml:space="preserve">
<circle fill="#0298B0" cx="93.5" cy="93.5" r="93.5"/>
<polygon fill="#BCB8B9" points="135,155.6 143.1,110.8 127,110.8 "/>
<rect x="42.8" y="53.4" transform="matrix(-0.8068 0.5909 -0.5909 -0.8068 163.5895 114.6617)" fill="#F0F7E7" width="40.6" height="61.4"/>
<rect x="45.6" y="56.3" transform="matrix(-0.8068 0.5908 -0.5908 -0.8068 163.582 114.6705)" fill="#FFA624" width="34.9" height="55.5"/>
<polygon fill="#FCBF4A" points="93.5,96.2 64.8,96.7 55.6,55.1 60.7,51.4 "/>
<polygon fill="#F88711" points="60.5,77.7 49.4,68.4 48.1,60.6 55.6,55.1 "/>
<path fill="#FAF8F9" d="M149.7,75.8c0.4,5-3.9,6-3.9,6l5.8,3.8l-21.9,33.6L100.2,100l25.9-39.7L149.7,75.8z"/>
<path opacity="0.55" fill="#E5E1E2" d="M149.7,75.8c0.4,5-3.9,6-3.9,6l5.8,3.8l-21.9,33.6l-3.6-58.8L149.7,75.8z"/>
<path fill="#D6D4D5" d="M149.7,75.8c0,0,5.5,4.2,1.9,9.8l-5.8-3.8C145.8,81.8,150,80.7,149.7,75.8z"/>
<polygon fill="#FFFFFF" points="70,69.9 70,38.5 126,38.5 126,106 71.7,106 "/>
<rect x="73.9" y="43.1" fill="#66A988" width="10.6" height="13.1"/>
<polygon opacity="0.3" fill="#E5E1E2" points="70,69.9 70,38.5 126,38.5 126,106 71.7,106 "/>
<rect x="73.9" y="89" fill="#DFE1DC" width="47.2" height="1.7"/>
<rect x="73.9" y="84.1" fill="#DFE1DC" width="39.8" height="1.7"/>
<rect x="73.9" y="79.2" fill="#DFE1DC" width="47.2" height="1.7"/>
<rect x="73.9" y="74.2" fill="#DFE1DC" width="43.4" height="1.7"/>
<rect x="73.9" y="69.3" fill="#DFE1DC" width="47.2" height="1.7"/>
<rect x="73.9" y="64.4" fill="#DFE1DC" width="32.8" height="1.7"/>
<rect x="73.9" y="59.4" fill="#DFE1DC" width="47.2" height="1.7"/>
<rect x="87.8" y="54.5" fill="#DFE1DC" width="33.3" height="1.7"/>
<rect x="87.8" y="48.8" fill="#DFE1DC" width="33.3" height="1.7"/>
<rect x="87.8" y="43.1" fill="#66A988" width="23.3" height="1.7"/>
<path fill="#FFFFFF" d="M74.9,54.9c0,0,0.6-3.3,4.3-3.3c3.7,0,4.3,3.3,4.3,3.3H74.9z"/>
<path fill="#FFFFFF" d="M81.4,48.5c0,1.3-1,2.3-2.2,2.3c-1.2,0-2.2-1-2.2-2.3s1-2.3,2.2-2.3C80.4,46.2,81.4,47.2,81.4,48.5z"/>
<polygon fill="#FFFFFF" points="80.8,100 75.4,94.6 47.7,94.6 51.9,100 62,155.6 135,155.6 136,100 "/>
</svg>
