<?xml version="1.0" encoding="utf-8"?>
<!-- Generator: Adobe Illustrator 18.1.0, SVG Export Plug-In . SVG Version: 6.00 Build 0)  -->
<svg version="1.1" xmlns="http://www.w3.org/2000/svg" xmlns:xlink="http://www.w3.org/1999/xlink" width="187px" height="187px"
	viewBox="0 0 187 187" xml:space="preserve">
<g>
	<circle fill="#F6810F" cx="93.5" cy="93.5" r="93.5"/>
	<path fill="#FFFFFF" d="M146.1,57.7h-108c-3,0-5.3,2.4-5.3,5.3v60.9c0,3,2.4,5.3,5.3,5.3h53.4l-11.6,15.5l29.1-15.5h37.1
		c3,0,5.3-2.4,5.3-5.3V63.1C151.5,60.1,149.1,57.7,146.1,57.7z"/>
	<g>
		<g>
			<path fill="#FFA624" d="M48.6,112.1H49c0.8,0,1.6,0.3,2.5,1c0.4,0.3,0.6,0.6,0.6,0.9v0.2c0,0.5-0.3,0.8-0.9,0.9l-0.1,0
				c-0.3,0-0.6-0.2-1-0.5c-0.4-0.3-0.8-0.4-1.2-0.4h-0.2c-0.8,0-1.4,0.4-1.9,1.2c-0.2,0.3-0.3,0.6-0.3,1v0.1c0,1,0.6,1.7,1.7,2.1
				l0.5,0h0.2c0.6,0,1.1-0.3,1.7-0.8c0.2-0.1,0.4-0.1,0.5-0.1c0.5,0,0.8,0.3,1,0.8v0.3c0,0.5-0.6,1-1.7,1.5c-0.6,0.2-1,0.3-1.4,0.3
				h-0.4c-1.1,0-2.1-0.5-3.1-1.5c-0.6-0.9-1-1.7-1-2.5v-0.4c0-1.1,0.5-2.1,1.5-3.1C46.9,112.4,47.7,112.1,48.6,112.1z"/>
			<path fill="#FFA624" d="M56.2,114.6h0.3c0.4,0,0.7,0.3,0.9,0.8v1.2h1.1c0.4,0,0.7,0.3,0.9,0.8v0.3c0,0.4-0.3,0.7-0.8,0.9l-0.5,0
				h-0.7v1.1c0,0.4-0.3,0.7-0.8,0.9h-0.3c-0.4,0-0.7-0.3-0.9-0.8l0-0.5v-0.6h-0.7c-0.7,0-1.1-0.2-1.2-0.6c0,0-0.1-0.1-0.1-0.3v-0.2
				c0-0.4,0.3-0.7,0.8-0.9h1.2v-0.7c0-0.7,0.2-1.1,0.6-1.2C55.9,114.6,56,114.6,56.2,114.6z"/>
			<path fill="#FFA624" d="M63.4,114.6h0.3c0.4,0,0.7,0.3,0.9,0.8v1.2h1.1c0.4,0,0.7,0.3,0.9,0.8v0.3c0,0.4-0.3,0.7-0.8,0.9l-0.5,0
				h-0.7v1.1c0,0.4-0.3,0.7-0.8,0.9h-0.3c-0.4,0-0.7-0.3-0.9-0.8l0-0.5v-0.6h-0.7c-0.7,0-1.1-0.2-1.2-0.6c0,0-0.1-0.1-0.1-0.3v-0.2
				c0-0.4,0.3-0.7,0.8-0.9h1.2v-0.7c0-0.7,0.2-1.1,0.6-1.2C63.2,114.6,63.3,114.6,63.4,114.6z"/>
		</g>
	</g>
	<g>
		<g>
			<path fill="#FFA624" d="M67.9,67.8h0.3c0.5,0,0.9,0.4,1.2,1.1v5.8c0,1.4-0.7,2.7-2.2,3.7C66.4,78.8,65.7,79,65,79h-0.4
				c-0.5,0-0.9-0.4-1.2-1.1v-0.4c0-0.4,0.3-0.8,0.9-1.1l1.3-0.2c0.8-0.5,1.2-1,1.2-1.7v-5c0-0.9,0.3-1.4,0.8-1.6
				C67.5,67.9,67.6,67.8,67.9,67.8z"/>
			<path fill="#FFA624" d="M74.8,71.1h0.4c1.2,0,2.2,0.6,3.1,1.8c0.4,0.7,0.6,1.4,0.6,2v3c0,0.5-0.4,0.9-1.1,1.2h-0.4
				c-0.2,0-0.5-0.1-0.8-0.4c-0.5,0.2-1,0.4-1.5,0.4h-0.4c-1.2,0-2.2-0.6-3.1-1.8c-0.4-0.7-0.6-1.4-0.6-2v-0.4c0-1.2,0.6-2.2,1.8-3.2
				C73.5,71.3,74.2,71.1,74.8,71.1z M73.7,75.2c0,0.5,0.3,0.9,1,1.1h0.4c0.5,0,0.9-0.3,1.1-1v-0.4c0-0.5-0.3-0.9-1-1.1h-0.4
				c-0.5,0-0.9,0.3-1.1,1V75.2z"/>
			<path fill="#FFA624" d="M82,71.1c0.7,0,1.2,0.6,1.6,1.8l0.9,1.8c1-2.3,1.7-3.4,2-3.4c0.1-0.1,0.3-0.2,0.6-0.2h0.2
				c0.5,0,0.9,0.4,1.2,1.1v0.4c0,0.2-0.7,1.7-2.2,4.4c-0.5,1.1-0.8,1.7-1.1,1.8C85.1,79,84.9,79,84.7,79h-0.1
				c-0.6,0-1.2-0.5-1.6-1.6c-0.6-1.1-1.4-2.7-2.3-4.7v-0.4c0-0.5,0.4-0.9,1.1-1.2H82z"/>
			<path fill="#FFA624" d="M94,71.1h0.4c1.2,0,2.2,0.6,3.1,1.8c0.4,0.7,0.6,1.4,0.6,2v3c0,0.5-0.4,0.9-1.1,1.2h-0.4
				c-0.2,0-0.5-0.1-0.8-0.4c-0.5,0.2-1,0.4-1.5,0.4H94c-1.2,0-2.2-0.6-3.1-1.8c-0.4-0.7-0.6-1.4-0.6-2v-0.4c0-1.2,0.6-2.2,1.8-3.2
				C92.7,71.3,93.4,71.1,94,71.1z M92.9,75.2c0,0.5,0.3,0.9,1,1.1h0.4c0.5,0,0.9-0.3,1.1-1v-0.4c0-0.5-0.3-0.9-1-1.1H94
				c-0.5,0-0.9,0.3-1.1,1V75.2z"/>
			<path fill="#FFA624" d="M104.7,71.1h0.4c1.2,0,2.2,0.6,3.2,1.8c0.4,0.7,0.6,1.4,0.6,2v0.4c0,1.2-0.6,2.2-1.8,3.2
				c-0.7,0.4-1.4,0.6-2,0.6h-3c-0.5,0-0.9-0.4-1.2-1.1v-0.4c0-0.5,0.4-0.9,1.1-1.2h2.5c1,0,1.5-0.3,1.7-0.9l0.1-0.3v-0.3
				c0-0.5-0.3-0.9-1-1.1h-0.4c-0.3,0-0.8,0.4-1.4,1.1c-1,1-1.6,1.5-1.8,1.5l-0.2,0H101c-0.5,0-0.9-0.3-1.2-1v-0.5
				c0-0.4,0.5-1.1,1.6-2.1C102.5,71.7,103.6,71.1,104.7,71.1z"/>
			<path fill="#FFA624" d="M114.3,71.1h0.4c0.5,0,0.9,0.4,1.2,1.1v0.4c0,0.4-0.3,0.8-0.8,1.1c-0.7,0.1-1.1,0.2-1.2,0.3
				c-0.4,0.3-0.6,0.6-0.6,0.9v0.3c0,0.4,0.3,0.8,0.8,1c0.1,0.1,0.4,0.1,0.9,0.2c0.6,0.3,0.9,0.7,0.9,1.1v0.3c0,0.5-0.4,0.9-1.1,1.2
				h-0.5c-1.2,0-2.2-0.6-3.1-1.8c-0.4-0.7-0.6-1.4-0.6-2v-0.4c0-1.2,0.6-2.2,1.8-3.2C113,71.3,113.7,71.1,114.3,71.1z"/>
			<path fill="#FFA624" d="M121.2,71.1h0.4c0.5,0,0.9,0.4,1.2,1.1v0.4c0,0.5-0.3,0.9-1.1,1.2c-0.8,0-1.3,0.3-1.5,0.9l-0.1,0.8v2.4
				c0,0.5-0.3,0.9-1,1.2h-0.4c-0.5,0-0.9-0.4-1.2-1.1v-3.1c0-1.2,0.6-2.2,1.8-3.2C120,71.3,120.6,71.1,121.2,71.1z"/>
			<path fill="#FFA624" d="M125.9,67.8c0.5,0,0.9,0.4,1.2,1.1v0.4c0,0.5-0.4,0.9-1,1.2h-0.4c-0.5,0-0.9-0.3-1.2-1.1v-0.4
				c0-0.5,0.3-0.9,1.1-1.2H125.9z M125.9,71.1c0.5,0,0.9,0.4,1.2,1.1v5.7c0,0.5-0.4,0.9-1,1.2h-0.4c-0.5,0-0.9-0.4-1.2-1.1v-5.7
				c0-0.5,0.3-0.9,1.1-1.2H125.9z"/>
			<path fill="#FFA624" d="M132.5,71.1h0.4c1.2,0,2.2,0.6,3.1,1.8c0.4,0.7,0.6,1.4,0.6,2v0.4c0,1.2-0.6,2.2-1.8,3.2
				c-0.7,0.4-1.4,0.6-2,0.6h-0.4c-0.3,0-0.7-0.1-1.2-0.2v2.4c0,0.5-0.4,0.9-1.1,1.2h-0.4c-0.5,0-0.9-0.3-1.2-1v-6.4
				c0-1.2,0.6-2.2,1.8-3.2C131.2,71.3,131.9,71.1,132.5,71.1z M131.4,75.2c0,0.5,0.3,0.9,1,1.1h0.4c0.5,0,0.9-0.3,1.1-1v-0.4
				c0-0.5-0.3-0.9-1-1.1h-0.4c-0.5,0-0.9,0.3-1.1,1V75.2z"/>
			<path fill="#FFA624" d="M139.8,67.8c0.3,0,0.7,0.2,1,0.7c0.1,0.2,0.2,0.5,0.2,1V71l0,0v0h1.5c0.5,0,0.9,0.4,1.2,1.1v0.4
				c0,0.5-0.4,0.9-1.1,1.2l-0.7,0H141v0.9c0,0.9,0.3,1.5,0.9,1.7l0.9,0.2c0.6,0.3,0.8,0.7,0.8,1.1v0.3c0,0.5-0.4,0.9-1.1,1.2h-0.5
				c-1.2,0-2.2-0.6-3.1-1.8c-0.4-0.7-0.6-1.4-0.6-2v-6.3c0-0.5,0.4-0.9,1.1-1.2H139.8z"/>
		</g>
	</g>
	<g>
		<g>
			<path fill="#FFA624" d="M76.6,91.7c1.6,0,3,0.8,4.3,2.4c0.6,1,0.9,1.9,0.9,2.7v0.5c0,1.6-0.8,3-2.4,4.3c-1,0.6-1.9,0.9-2.7,0.9
				h-2v1.9c0,1.2-0.2,1.9-0.6,2.1c0,0.2-0.3,0.3-1,0.5h-0.5c-0.7,0-1.2-0.5-1.6-1.4V93.3c0-0.7,0.5-1.2,1.4-1.6H76.6z M74.6,95.3
				v3.6h2c0.7,0,1.2-0.5,1.5-1.4v-0.6c0-0.7-0.5-1.2-1.4-1.5l-0.9,0H74.6z"/>
			<path fill="#FFA624" d="M90.6,96.2h0.5c1.6,0,3,0.8,4.3,2.4c0.6,1,0.9,1.9,0.9,2.7v0.5c0,1.6-0.8,3-2.4,4.3
				c-1,0.6-1.9,0.9-2.7,0.9h-4.1c-0.7,0-1.2-0.5-1.6-1.4V105c0-0.7,0.5-1.2,1.5-1.6h3.4c1.3,0,2-0.4,2.3-1.2l0.1-0.4v-0.4
				c0-0.7-0.5-1.2-1.4-1.5h-0.6c-0.5,0-1.1,0.5-1.9,1.5c-1.3,1.4-2.2,2.1-2.4,2.1l-0.3,0h-0.5c-0.7,0-1.2-0.5-1.6-1.4v-0.6
				c0-0.5,0.7-1.5,2.2-2.8C87.6,97,89.1,96.2,90.6,96.2z"/>
		</g>
	</g>
	<g>
		<g>
			<path fill="#FFA624" d="M113.3,113.3c0.5,0,0.9,0.4,1.2,1.2c1.9,3.8,2.9,5.8,3.1,6.1v0.3c0,0.2-0.2,0.5-0.7,0.8l-0.3,0.1h-0.2
				c-0.4,0-0.8-0.3-1-1l-0.3-0.5h-3.7c-0.4,0.9-0.7,1.4-0.8,1.4c-0.1,0.1-0.2,0.1-0.4,0.1h-0.2c-0.3,0-0.6-0.2-0.8-0.7L109,121v-0.2
				c0-0.1,0.4-1,1.2-2.6c1-2.2,1.8-3.7,2.2-4.4c0.2-0.2,0.4-0.3,0.6-0.3H113.3z M112.4,118.3h1.7l-0.8-1.7
				C113.1,116.8,112.8,117.4,112.4,118.3z"/>
			<path fill="#FFA624" d="M119.9,113.3c0.4,0,0.7,0.3,0.9,0.8v0.3c0,0.4-0.3,0.7-0.8,0.9h-0.3c-0.4,0-0.7-0.3-0.9-0.8v-0.3
				c0-0.4,0.3-0.7,0.8-0.9H119.9z M119.9,115.8c0.4,0,0.7,0.3,0.9,0.8v4.3c0,0.4-0.3,0.7-0.8,0.9h-0.3c-0.4,0-0.7-0.3-0.9-0.8v-4.3
				c0-0.4,0.3-0.7,0.8-0.9H119.9z"/>
		</g>
	</g>
</g>
</svg>
