<?xml version="1.0" encoding="utf-8"?>
<!-- Generator: Adobe Illustrator 18.1.0, SVG Export Plug-In . SVG Version: 6.00 Build 0)  -->
<svg version="1.1" xmlns="http://www.w3.org/2000/svg" xmlns:xlink="http://www.w3.org/1999/xlink" width="187px" height="187px"
	 viewBox="0 0 187 187" enable-background="new 0 0 187 187" xml:space="preserve">
<circle fill="#DA3136" cx="93.5" cy="93.5" r="93.5"/>
<polygon fill="#FFC331" points="155.9,96.1 155.9,69.2 152.4,70.4 152.4,96.1"/>
<path fill="#FFA624" d="M155.9,101.7L155.9,101.7c-0.5,0.3-1.1,0.4-1.7,0.4c-0.6,0-1.2-0.1-1.7-0.4v0l-3.9,13.9h5.6h5.6
	L155.9,101.7z"/>
<path fill="#FDC12F" d="M155.9,96.1c-0.5-0.3-1.1-0.4-1.7-0.4c-0.6,0-1.2,0.1-1.7,0.4c-1.1,0.5-1.9,1.6-1.9,2.8
	c0,1.2,0.7,2.2,1.9,2.8c0.5,0.3,1.1,0.4,1.7,0.4c0.6,0,1.2-0.1,1.7-0.4c1.1-0.5,1.9-1.6,1.9-2.8C157.7,97.7,157,96.7,155.9,96.1z"/>
<polygon fill="#2E3D50" points="133.8,76.9 165.8,65.7 167.3,65.1 165.8,64.6 92.7,38.9 18.2,65.1 18.2,65.1 18.2,65.2 
	51.6,76.9 92.7,91.4"/>
<polygon fill="#2E3D50" points="92.7,91.4 51.6,76.9 51.6,111.6 92.7,126.1 133.8,111.6 133.8,76.9"/>
<polygon opacity="0.3" fill="#231F20" points="92.7,91.4 51.6,76.9 51.6,111.6 92.7,126.1 133.8,111.6 133.8,76.9"/>
<path fill="#2D292A" d="M64.6,96.5c-2.2-3.7-3.4,0-3.4,0v14.2l3.4,1.2V96.5z"/>
<path fill="#4D4B4C" d="M93.5,187c27.2,0,51.7-11.6,68.7-30.1l-28.4-29.7l-41.1,14.5l-41.1-14.5l-27.3,29.3
	C41.4,175.2,66.1,187,93.5,187z"/>
<path fill="#646869" d="M158,161.1l-29.9-32l-35.4,12.4l-35.4-12.4l-29.2,31.2C45,176.8,68.1,187,93.5,187
	C118.5,187,141.3,177.2,158,161.1z"/>
<polygon fill="#FFC331" points="92.7,141.6 90,140.4 90,153.5 92.7,154.7 95.5,153.5 95.5,140.4 	"/>
<polygon fill="#FFC331" points="92.7,163.7 90,162.5 90,175.6 92.7,176.8 95.5,175.6 95.5,162.5 	"/>
<polygon fill="#9D9FA0" points="92.7,141.6 51.6,127.1 51.6,96.4 92.7,110.8 133.8,96.4 133.8,127.1 	"/>
<polygon fill="#2D292A" points="92.7,117 57.1,104.5 57.1,129 92.7,141.6 128.4,129 128.4,104.5 	"/>
<polygon opacity="0.35" fill="#231F20" points="93,91.4 93,110.8 93,126.1 93,141.6 134,127.1 134,111.6 134,96.4 134,76.9 	"/>
</svg>
