<?xml version="1.0" encoding="utf-8"?>
<!-- Generator: Adobe Illustrator 18.1.0, SVG Export Plug-In . SVG Version: 6.00 Build 0)  -->
<svg version="1.1" xmlns="http://www.w3.org/2000/svg" xmlns:xlink="http://www.w3.org/1999/xlink" width="187px" height="187px"
	 viewBox="0 0 187 187" xml:space="preserve">
<circle fill="#4E6471" cx="93.5" cy="93.5" r="93.5"/>
<circle fill="#FAF8F9" cx="23.9" cy="118" r="14.5"/>
<path fill="#C7C2BF" d="M32.3,110.5c0.8-0.8-0.4-2.1-1.3-1.3c-0.6,0.6-1.3,1.3-1.9,1.9c-1.5-1.1-3.3-1.8-5.2-1.8
	c-4.8,0-8.6,3.9-8.6,8.6c0,4.8,3.9,8.6,8.6,8.6c4.8,0,8.6-3.9,8.6-8.6c0-2.2-0.8-4.1-2.1-5.6C31,111.7,31.6,111.1,32.3,110.5z"/>
<circle fill="#A2877C" cx="23.8" cy="118" r="6.7"/>
<path fill="#FAF8F9" d="M34.4,41.4C31.6,50.3,39,54.1,39,54.1l-12.2,4.4l25.4,70.8l62-22.2l-30-83.5L34.4,41.4z"/>
<path fill="#E5E1E2" d="M34.4,41.4c0,0-11.9,5.2-7.7,17.1L39,54.1C39,54.1,31.6,50.3,34.4,41.4z"/>
<g>
	<path fill="#231F20" d="M52.5,107.9c0,0-0.1-0.2-0.1-0.6c0-0.4,0-1,0.3-1.7c0.3-0.7,0.9-1.5,1.7-2.2c0.8-0.7,1.9-1.3,3.2-1.7
		c0.6-0.2,1.3-0.5,2.1-0.4c0.4,0,0.8,0.3,1.1,0.6c0.3,0.3,0.5,0.5,0.8,0.7c0.5,0.3,1.2,0.3,1.9,0.2c0.7-0.1,1.5-0.4,2.2-0.6
		c1.5-0.6,3.1-1.2,4.6-1.9c1.6-0.6,3.2-1.3,4.8-2c3.2-1.3,6.5-2.6,9.5-3.8c3-1.2,5.9-2.2,8.3-3.2c2.4-0.9,4.5-1.7,5.9-2.2
		c1.4-0.5,2.3-0.8,2.3-0.8s-0.8,0.4-2.2,1c-1.4,0.6-3.4,1.5-5.8,2.5c-2.4,1-5.2,2.2-8.2,3.5c-3,1.2-6.2,2.6-9.4,3.9
		c-1.6,0.6-3.2,1.3-4.8,1.9c-1.6,0.6-3.1,1.3-4.7,1.8c-0.8,0.3-1.6,0.5-2.4,0.6c-0.8,0.1-1.7,0.1-2.5-0.4c-0.3-0.3-0.6-0.6-0.8-0.8
		c-0.2-0.2-0.4-0.4-0.7-0.4c-0.6-0.1-1.2,0.1-1.8,0.3c-1.2,0.4-2.3,0.9-3.1,1.5c-0.8,0.6-1.4,1.3-1.8,2c-0.3,0.7-0.4,1.3-0.4,1.7
		C52.4,107.7,52.5,107.9,52.5,107.9z"/>
</g>
<path fill="#2D2B28" d="M31.8,152.9c-0.6,1.4-0.7,2.8-0.1,3l2.1,0.9c0.5,0.2,1.4-0.8,2-2.2l0.7-1.6l-4-1.6L31.8,152.9z"/>
<polygon fill="#2D2B28" points="37.7,149.8 38,149.2 39.5,145.4 52,114.9 47.9,113.2 35.5,143.7 34,147.5 33.7,148.2 33.4,148.9 
	37.4,150.5 "/>
<rect x="33.7" y="148.7" transform="matrix(-0.378 0.9258 -0.9258 -0.378 187.8365 175.5373)" fill="#9E9E9E" width="2.5" height="4.3"/>
<polygon fill="#231F20" points="53.5,105.5 52.7,106.4 53.3,106.7 "/>
<path fill="#D1D1D1" d="M52,114.9l0.2-0.5l0.8-2l0.4-0.9l-0.3-2.9l0.2-1.1l0.1-0.8l-0.6-0.2l-0.5,0.7l-0.6,0.9l-2.3,1.9l-0.4,0.9
	l-0.8,2l-0.2,0.5L52,114.9z"/>
<rect x="102.7" y="52" transform="matrix(0.9301 0.3674 -0.3674 0.9301 31.5549 -46.2294)" fill="#009687" width="69" height="15.5"/>
<polygon fill="#FFFFFF" points="132.7,61.9 127,51.5 105.2,42.9 102.4,49.9 68.9,134.8 136.8,161.7 170.3,76.8 "/>
<path fill="none" stroke="#054E47" stroke-width="0.75" stroke-miterlimit="10" d="M162.1,73.6c0,0,0.5-1.5,2.3-0.9
	c1.8,0.7,1.2,2.2,1.2,2.2l-3,8c0,0-0.8,0.7-2.1,0.2l1.9-5.2"/>
<rect x="103.5" y="72.5" transform="matrix(0.9332 0.3593 -0.3593 0.9332 35.6823 -42.0244)" fill="#E5E1E2" width="54.8" height="5.1"/>
<rect x="108.4" y="80.3" transform="matrix(0.9332 0.3593 -0.3593 0.9332 37.9454 -40.6417)" fill="#E5E1E2" width="39.9" height="2.9"/>
</svg>
