<?xml version="1.0" encoding="utf-8"?>
<!-- Generator: Adobe Illustrator 18.1.0, SVG Export Plug-In . SVG Version: 6.00 Build 0)  -->
<svg version="1.1" xmlns="http://www.w3.org/2000/svg" xmlns:xlink="http://www.w3.org/1999/xlink" width="187px" height="187px"
	 viewBox="0 0 187 187" xml:space="preserve">
<circle fill="#0C914F" cx="93.5" cy="93.5" r="93.5"/>
<polygon fill="#FFFFFF" points="126.4,49 57.4,49 57.4,106.9 57.4,114.5 83.5,140.6 126.4,140.6 "/>
<path fill="#E9E3B3" d="M120.1,62.3H82.9v-1.9h37.2V62.3z M120.1,89.7H74.6v1.9h45.5V89.7z M120.1,94.8H64.7v1.9h55.4V94.8z
	 M120.1,99.8H90.7v1.9h29.4V99.8z M120.1,104.9H82.9v1.9h37.2V104.9z M120.1,119.7H82.9v1.9h37.2V119.7z M120.1,124.7H73.3v1.9h46.9
	V124.7z M120.1,129.8H96.7v1.9h23.4V129.8z"/>
<path fill="#E85426" d="M149.4,33.2l-5.6-5.6l3.5-3.5c1-1,2.3-1.1,3-0.4l3,3c0.7,0.7,0.5,2.1-0.4,3L149.4,33.2z"/>
<rect x="141.6" y="29.3" transform="matrix(0.707 0.7072 -0.7072 0.707 64.8324 -93.7547)" fill="#F1F0EE" width="8" height="4.2"/>
<polygon fill="#FFEBCA" points="126.4,56.2 123.6,53.4 120.8,50.5 118.9,52.4 116.9,58.1 118.9,60.1 124.5,58.1 "/>
<polygon fill="#FDD738" points="121.1,53.6 121.2,53.6 123.6,53.3 123.3,55.8 123.4,55.8 125.9,55.5 125.1,57.5 146.9,35.7 
	141.3,30 119.5,51.8 121.4,51.1 "/>
<polygon fill="#5F5232" points="116.5,59 116,60.9 117.9,60.4 118.9,60.1 116.9,58.1 "/>
<rect x="101.5" y="60.3" fill="#5F5232" width="18.6" height="1.9"/>
<path fill="#C2C6C5" d="M56.8,154.4l25.9-23.3c0,0,1.2-0.9,0.4-1.7c-0.8-0.9-2,0.1-2,0.1l-23.6,18.9L56.8,154.4z"/>
<path fill="#004F46" d="M67.4,165.5c-0.2-2.6-1.9-4.6-4.2-5.5l0,0l-1.7-10l4-3.6l-4.7-0.5l-3.8-2.8l0,0l0.4,5.3l-6.5,6.7l-1.4-0.5
	c-2.2-0.9-4.9-0.6-6.8,1.2c-2.6,2.4-2.8,6.4-0.4,9.1c2.4,2.6,6.4,2.8,9.1,0.4c1.9-1.7,2.5-4.4,1.8-6.7l4.2-3.8l0.5,5.7
	c-2.1,1.2-3.5,3.5-3.2,6.1c0.3,3.5,3.4,6.2,6.9,5.9C65,172.2,67.7,169,67.4,165.5z M50,163.8c-1.8,1.6-4.6,1.5-6.2-0.3
	c-1.6-1.8-1.5-4.6,0.3-6.2c1.8-1.6,4.6-1.5,6.2,0.3C51.9,159.4,51.8,162.1,50,163.8z M60.6,149.7c-0.2,0.6-0.9,0.9-1.5,0.6
	c-0.6-0.2-0.9-0.9-0.6-1.5c0.2-0.6,0.9-0.9,1.5-0.6C60.5,148.5,60.8,149.1,60.6,149.7z M61.3,170.4c-2.4,0.2-4.5-1.6-4.7-4
	c-0.2-2.4,1.6-4.5,4-4.7c2.4-0.2,4.5,1.6,4.7,4C65.6,168.1,63.8,170.2,61.3,170.4z"/>
<polygon fill="#FFFFFF" points="55.1,142.1 60.2,142.1 81.2,142.1 55.1,116 "/>
<path fill="#C2C6C5" d="M57.4,120.2c0,0-0.2-1.6-1.4-1.5c-1.2,0.1-0.9,1.5-0.9,1.5l2,23l3.8,2.8L57.4,120.2z"/>
</svg>
