<?xml version="1.0" encoding="utf-8"?>
<!-- Generator: Adobe Illustrator 18.1.0, SVG Export Plug-In . SVG Version: 6.00 Build 0)  -->
<svg version="1.1" xmlns="http://www.w3.org/2000/svg" xmlns:xlink="http://www.w3.org/1999/xlink" width="80" height="17"
     viewBox="0 0 80 17" enable-background="new 0 0 80 17" xml:space="preserve">
<path fill="#FFFFFF" d="M11.8,9.5c0-2.4-2.3-3.4-5.5-3.9C4.8,5.3,4.5,5,4.5,4.6c0-0.4,0.3-0.6,1.1-0.6c1.3,0,2.6,0.8,3.8,0.8
	c0.7,0,1.3-0.4,1.6-1.1C11,3.6,11,3.4,11,3.1c0-0.6-0.4-1.2-1-1.4C8.9,1.2,7.5,0.9,5.7,0.9C2.2,0.9,0.2,2.6,0.2,5
	c0,2.6,2.6,3.4,5.4,3.9c1.5,0.3,1.9,0.5,1.9,1c0,0.4-0.3,0.6-1.2,0.6c-1.4,0-2.7-0.4-4-1C2.1,9.5,1.9,9.4,1.7,9.4
	c-0.7,0-1.3,0.4-1.6,1C0.1,10.6,0,10.8,0,11.1c0,0.5,0.2,1.1,0.9,1.4c1.5,0.7,3.4,1.2,5.3,1.2C9.6,13.7,11.8,12.1,11.8,9.5z
	 M21,12.2c0.2,1.2,1.3,1.7,2.1,1.7c1.2,0,2-0.9,2-2.1V6c0-1.1-0.9-1.9-2-1.9c-1.1,0-2,0.9-2,1.9v3.1c0,0.9-0.6,1.4-1.3,1.4
	c-0.7,0-1.3-0.5-1.3-1.4V6c0-1.1-0.9-1.9-2-1.9c-1.1,0-2,0.9-2,1.9v4.4c0,2.2,1.3,3.5,3.4,3.5C18.8,13.9,20.2,13.6,21,12.2z
	 M27.8,11.7c0,1.1,0.9,1.9,2,1.9c1.1,0,2-0.9,2-1.9V8.6c0-0.9,0.6-1.4,1.3-1.4c0.8,0,1.3,0.5,1.3,1.4v3.2c0,1.1,0.9,1.9,2,1.9
	c1.1,0,2-0.9,2-1.9V7.3c0-2.2-1.3-3.5-3.4-3.5c-1.4,0-2.5,0.9-3.2,1.8c-0.3-1.1-1-1.7-2.1-1.7c-1.1,0-2,0.8-2,1.9V11.7z M43.1,4
	c-1.1,0-2,0.9-2,1.9v5.8c0,1.1,0.9,1.9,2,1.9c1.1,0,2-0.9,2-1.9c0-3.4,0.1-4.3,1.1-4.3c0.7,0,1.4,0.5,2,0.5c0.8,0,1.5-1,1.5-2
	C49.8,4.8,49,4,47.8,4c-1.3,0-2,0.9-2.7,2V5.7c0-1-0.8-1.7-1.8-1.7H43.1z M54.8,16.3c1.3,0,2.4-1,2.4-2.3c0-1.3-1.1-2.3-2.4-2.3
	c-1.3,0-2.4,1-2.4,2.3C52.4,15.3,53.5,16.3,54.8,16.3z M63.7,0.7c-0.7,0-1.3,0.5-1.3,1.2c0,0.7,0.6,1.2,1.3,1.2h1.7
	c0.7,0,1.3-0.5,1.3-1.2c0-0.7-0.5-1.2-1.3-1.2H63.7z M62.5,6v5.8c0,1.1,0.9,1.9,2,1.9c1.1,0,2-0.9,2-1.9V6c0-1.1-0.9-1.9-2-1.9
	C63.4,4,62.5,4.9,62.5,6z M69.3,11.7c0,1.1,0.9,1.9,2,1.9c1.1,0,2-0.9,2-1.9V8.6c0-0.9,0.6-1.4,1.3-1.4c0.8,0,1.3,0.5,1.3,1.4v3.2
	c0,1.1,0.9,1.9,2,1.9c1.1,0,2-0.9,2-1.9V7.3c0-2.2-1.3-3.5-3.4-3.5c-1.4,0-2.5,0.9-3.2,1.8c-0.3-1.1-1-1.7-2.1-1.7
	c-1.1,0-2,0.8-2,1.9V11.7z"/>

</svg>
