<?xml version="1.0" encoding="utf-8"?>
<!-- Generator: Adobe Illustrator 18.1.0, SVG Export Plug-In . SVG Version: 6.00 Build 0)  -->
<svg version="1.1" xmlns="http://www.w3.org/2000/svg" xmlns:xlink="http://www.w3.org/1999/xlink" width="80px" height="17px"
	 viewBox="0 0 80 17" xml:space="preserve">
<path fill="#A5A5A5" d="M-745.4,605.9c0.9,0,2-0.1,2.4-1c0.5-0.9-0.1-1.9-0.9-2.4c-1.8-1.2-4.5-1.2-5.5-3.5c-0.8-1.9,0.2-4.2,2.1-5
	s4.6-0.6,6.4,0.5l-0.8,2c-1.2-0.7-3.8-1.4-5-0.2c-1.4,1.6,1,2.9,2.2,3.3c1.5,0.6,3.2,1.2,3.9,2.8c0.5,1.3,0.4,3-0.6,4.1
	c-1.9,2.2-6.5,1.8-8.8,0.5l0.7-2.1C-747.9,605.7-746.6,605.9-745.4,605.9z"/>
<path fill="#A5A5A5" d="M-729.5,607.5c-1.9,0.5-4.3,0.9-6.1,0.3c-2-0.7-2.6-2.7-2.6-4.6v-5.9h2.4v5.5c0,0.9,0,2.2,0.9,2.8
	c0.8,0.5,2.1,0.4,3,0.2v-8.5h2.4L-729.5,607.5L-729.5,607.5z"/>
<path fill="#A5A5A5" d="M-726.4,597.7c1.9-0.5,4.3-0.9,6.2-0.3c2,0.7,2.6,2.6,2.6,4.5v5.9h-2.4v-5.5c0-0.9,0-2.2-0.9-2.8
	c-0.8-0.5-2.1-0.3-3-0.1v8.4h-2.4L-726.4,597.7L-726.4,597.7z"/>
<path fill="#A5A5A5" d="M-708.7,599.5c-1.1-0.4-2.4-0.5-3.5-0.1v8.4h-2.4v-10c2-0.7,4.4-1,6.4-0.4L-708.7,599.5z"/>
<path fill="#A5A5A5" d="M-704.9,606.5c0,0.5-0.2,0.8-0.5,1.1c-0.3,0.3-0.7,0.4-1.1,0.4c-0.5,0-0.8-0.1-1.1-0.4
	c-0.3-0.3-0.5-0.7-0.5-1.1s0.2-0.8,0.5-1.2c0.3-0.3,0.7-0.4,1.1-0.4s0.8,0.1,1.1,0.4C-705,605.6-704.9,606-704.9,606.5z"/>
<path fill="#A5A5A5" d="M-699.6,594.3c0,0.5-0.1,0.8-0.4,1.1s-0.6,0.4-1,0.4s-0.8-0.1-1.1-0.4c-0.3-0.3-0.4-0.6-0.4-1.1
	s0.1-0.8,0.4-1.1s0.6-0.4,1.1-0.4c0.4,0,0.7,0.1,1,0.4C-699.7,593.5-699.6,593.8-699.6,594.3z"/>
<rect x="-702.3" y="597.4" fill="#A5A5A5" width="2.4" height="10.5"/>
<path fill="#A5A5A5" d="M-696.8,597.7c1.9-0.5,4.3-0.9,6.2-0.3c2,0.7,2.6,2.6,2.6,4.5v5.9h-2.4v-5.5c0-0.9,0-2.2-0.9-2.8
	c-0.8-0.5-2.1-0.3-3-0.1v8.4h-2.4L-696.8,597.7L-696.8,597.7z"/>
</svg>
