<?xml version="1.0" encoding="utf-8"?>
<!-- Generator: Adobe Illustrator 18.1.0, SVG Export Plug-In . SVG Version: 6.00 Build 0)  -->
<svg version="1.1" id="레이어_1" xmlns="http://www.w3.org/2000/svg" xmlns:xlink="http://www.w3.org/1999/xlink" width="80px" height="17px"
	 viewBox="0 0 80 17" xml:space="preserve">
<path fill="#A5A5A5" d="M10.7,14.6c1,0,2.2-0.1,2.7-1.1c0.6-1-0.1-2.1-1-2.7c-2-1.3-5-1.3-6.1-3.9c-0.9-2.1,0.2-4.7,2.3-5.6
	s5.1-0.7,7.1,0.6l-0.9,2.2c-1.3-0.8-4.2-1.6-5.6-0.2c-1.6,1.8,1.1,3.2,2.4,3.7c1.7,0.7,3.6,1.3,4.3,3.1c0.6,1.4,0.4,3.3-0.7,4.6
	c-2.1,2.4-7.2,2-9.8,0.6l0.8-2.3C7.9,14.3,9.3,14.6,10.7,14.6z"/>
<path fill="#A5A5A5" d="M28.3,16.3c-2.1,0.6-4.8,1-6.8,0.3c-2.2-0.8-2.9-3-2.9-5.1V5h2.7v6.1c0,1,0,2.4,1,3.1
	c0.9,0.6,2.3,0.4,3.3,0.2V5h2.7L28.3,16.3L28.3,16.3z"/>
<path fill="#A5A5A5" d="M31.8,5.4c2.1-0.6,4.8-1,6.9-0.3c2.2,0.8,2.9,2.9,2.9,5v6.6h-2.7v-6.1c0-1,0-2.4-1-3.1
	c-0.9-0.6-2.3-0.3-3.3-0.1v9.3h-2.7L31.8,5.4L31.8,5.4z"/>
<path fill="#A5A5A5" d="M51.4,7.4c-1.2-0.4-2.7-0.6-3.9-0.1v9.3h-2.7v-11.1c2.2-0.8,4.9-1.1,7.1-0.4L51.4,7.4z"/>
<path fill="#A5A5A5" d="M55.7,15.2c0,0.6-0.2,0.9-0.6,1.2s-0.8,0.4-1.2,0.4c-0.6,0-0.9-0.1-1.2-0.4c-0.3-0.3-0.6-0.8-0.6-1.2
	s0.2-0.9,0.6-1.3c0.3-0.3,0.8-0.4,1.2-0.4c0.4,0,0.9,0.1,1.2,0.4C55.6,14.2,55.7,14.7,55.7,15.2z"/>
<path fill="#A5A5A5" d="M61.6,1.7c0,0.6-0.1,0.9-0.4,1.2s-0.7,0.4-1.1,0.4c-0.4,0-0.9-0.1-1.2-0.4c-0.3-0.3-0.4-0.7-0.4-1.2
	c0-0.6,0.1-0.9,0.4-1.2s0.7-0.4,1.2-0.4c0.4,0,0.8,0.1,1.1,0.4S61.6,1.1,61.6,1.7z"/>
<rect x="58.6" y="5.1" fill="#A5A5A5" width="2.7" height="11.7"/>
<path fill="#A5A5A5" d="M64.7,5.4c2.1-0.6,4.8-1,6.9-0.3c2.2,0.8,2.9,2.9,2.9,5v6.6h-2.7v-6.1c0-1,0-2.4-1-3.1
	c-0.9-0.6-2.3-0.3-3.3-0.1v9.3h-2.7L64.7,5.4L64.7,5.4z"/>
</svg>
